<?xml version="1.0" encoding="UTF-8"?>
<svg version="1.1" xmlns="http://www.w3.org/2000/svg" width="500" height="500">
<path d="M0 0 C165 0 330 0 500 0 C500 165 500 330 500 500 C335 500 170 500 0 500 C0 335 0 170 0 0 Z " fill="#FEFDFE" transform="translate(0,0)"/>
<path d="M0 0 C2.90881412 1.18422077 5.00264469 2.56254945 7 5 C8.34407794 9.10774383 8.39775067 12.74131715 7.09765625 16.85546875 C6.98425682 20.5069304 7.36509629 20.86561972 9.74609375 23.4296875 C10.9592297 24.59641934 12.19057339 25.7444532 13.4375 26.875 C14.06205078 27.46796875 14.68660156 28.0609375 15.33007812 28.671875 C16.87145074 30.13088419 18.4337968 31.56767849 20 33 C20.99 32.67 21.98 32.34 23 32 C26.80585475 31.4925527 30.44834189 31.13903857 33.88671875 33.046875 C37.12776489 35.71504857 38.83805648 37.574897 39.3125 41.75 C38.84448782 46.61732665 36.39156673 49.60843327 33 53 C31.24643252 52.77639072 29.49688557 52.52090739 27.75 52.25 C22.99197233 52.08831945 20.57637205 53.0301854 17.09375 56.109375 C13.54542895 59.57197919 10.21428633 63.22658268 7 67 C7.33 67.99 7.66 68.98 8 70 C8.36945059 74.98758297 8.18227193 78.04959346 5 82 C2.28575479 84.12738138 0.4760723 84.92909561 -2.9375 85.4375 C-6.83530088 84.8806713 -8.93989651 83.43417323 -12 81 C-14.41290986 77.38063522 -13.91517294 76.74971574 -13.3125 72.625 C-13.21382659 67.24400988 -14.61493316 64.44811158 -18.03808594 60.51074219 C-21.82670893 56.61405807 -24.96489198 53.42622516 -30.39453125 52.2890625 C-33.52670363 52.3046729 -33.52670363 52.3046729 -36.44140625 52.8359375 C-39 53 -39 53 -41.2578125 51.67578125 C-43.93930812 49.0964951 -44.93374784 46.81457319 -45.0703125 43.07421875 C-44.83748647 39.43802403 -44.10473675 37.17954872 -42.25 34 C-38.40188352 31.63192832 -37.3557152 32.03707375 -33 32.5 C-28.36405763 32.72808412 -25.78417576 32.1765033 -22.2265625 29.30078125 C-21.00109488 28.16434332 -19.8003018 27.00074565 -18.625 25.8125 C-18.0475 25.235 -17.47 24.6575 -16.875 24.0625 C-15.37959388 22.43081303 -14.1013116 20.91983443 -13 19 C-12.98794319 16.30686217 -12.98794319 16.30686217 -14 14 C-14.37287171 9.82383683 -14.48398769 7.75101539 -12.1875 4.1875 C-8.1368405 0.1368405 -5.67123533 -0.66164412 0 0 Z " fill="#1E939E" transform="translate(138,208)"/>
<path d="M0 0 C0.268125 0.639375 0.53625 1.27875 0.8125 1.9375 C1.88667752 4.33131686 1.88667752 4.33131686 5 5 C6.75390625 6.70703125 6.75390625 6.70703125 8.5625 8.8125 C9.16191406 9.49957031 9.76132813 10.18664062 10.37890625 10.89453125 C13.76280077 15.28951714 14.60830198 18.89574941 14.48193359 24.40136719 C13.60443359 29.13293258 10.71795849 31.90270608 7.3125 35.125 C6.63131104 35.77428467 5.95012207 36.42356934 5.24829102 37.0925293 C1.25730521 40.63620545 -2.10944031 43.18640796 -7.5625 43.8125 C-15.15699031 42.83012812 -20.51923935 37.57973715 -25.28125 31.921875 C-28.54936899 27.53436092 -30.09591155 23.95378497 -29.4375 18.3984375 C-24.22122264 6.06647743 -13.67989126 -3.11430914 0 0 Z " fill="#F5FAFB" transform="translate(142,230)"/>
<path d="M0 0 C-0.165 0.99 -0.33 1.98 -0.5 3 C-1.08474517 7.02732942 -1.07132024 10.93474623 -1 15 C-12.77283252 16.74093131 -12.77283252 16.74093131 -17.3125 14 C-19.42005378 10.25323773 -19.68137067 8.23963971 -19 4 C-13.87649794 -3.85603649 -8.06101764 -2.57952564 0 0 Z " fill="#1993A1" transform="translate(114,243)"/>
<path d="M0 0 C10 0 10 0 13.1875 1.5625 C15 4 15 4 14.8125 7.75 C14.544375 8.8225 14.27625 9.895 14 11 C13.01 11.33 12.02 11.66 11 12 C12.65 15.3 14.3 18.6 16 22 C14.68 22 13.36 22 12 22 C11.76925781 21.43410156 11.53851563 20.86820312 11.30078125 20.28515625 C10.31565123 18.06958715 9.33896798 16.02342445 8 14 C5.3852733 12.87184635 5.3852733 12.87184635 3 13 C3 15.97 3 18.94 3 22 C2.01 22 1.02 22 0 22 C0 14.74 0 7.48 0 0 Z " fill="#4A4E52" transform="translate(374,251)"/>
<path d="M0 0 C0.99 0 1.98 0 3 0 C3 0.66 3 1.32 3 2 C3.99 2.33 4.98 2.66 6 3 C5.5153125 3.4125 5.030625 3.825 4.53125 4.25 C3.11494752 5.47019906 1.70946009 6.70301585 0.3125 7.9453125 C-1.20865626 9.29688039 -2.75014346 10.62596431 -4.3125 11.9296875 C-8.39159289 15.41944633 -8.39159289 15.41944633 -10.46484375 20.19140625 C-10.46992342 22.44046376 -10.46992342 22.44046376 -10.21484375 24.6796875 C-9.85986444 28.51346405 -10.51643487 32.19192463 -11 36 C-11.99 35.34 -12.98 34.68 -14 34 C-17.04976249 33.90134383 -20.04321593 34.06787095 -23.08984375 34.22265625 C-26.41368617 33.96834884 -27.62370884 33.2781874 -30 31 C-32.21921392 27.30131014 -32.30452197 24.08373763 -31.57421875 19.9375 C-30.4779516 16.23853057 -29.2980888 15.02959311 -26 13 C-23.99626292 13.11320548 -21.99569293 13.28789737 -20 13.5 C-15.28623945 13.75769989 -12.83096817 13.22466357 -9.3671875 10.125 C-7.02222364 7.79294894 -4.8486733 5.3386314 -2.6796875 2.84375 C-1.79539062 1.9053125 -0.91109375 0.966875 0 0 Z M-29 19 C-29.33 19.33 -29.66 19.66 -30 20 C-30.4732962 24.10190042 -30.35306285 26.37233271 -28.3125 30 C-23.06132041 33.17052352 -17.89138208 31.87119999 -12 31 C-12.01160156 30.16855469 -12.02320312 29.33710938 -12.03515625 28.48046875 C-12.04417969 27.39378906 -12.05320312 26.30710938 -12.0625 25.1875 C-12.07410156 24.10855469 -12.08570312 23.02960938 -12.09765625 21.91796875 C-12 19 -12 19 -11 16 C-18.74286334 13.52228373 -23.21600472 12.22446267 -29 19 Z " fill="#3A9A9E" transform="translate(125,227)"/>
<path d="M0 0 C1.32 0.33 2.64 0.66 4 1 C5.28373121 3.54685205 6.29761044 5.89726697 7.25 8.5625 C7.518125 9.27341797 7.78625 9.98433594 8.0625 10.71679688 C8.7224131 12.47263709 9.36306641 14.23569397 10 16 C10.79311367 14.27149655 11.5844259 12.54216646 12.375 10.8125 C13.03628906 9.36810547 13.03628906 9.36810547 13.7109375 7.89453125 C14.87321851 5.28468208 15.95924781 2.66024041 17 0 C18.32 0 19.64 0 21 0 C21 7.26 21 14.52 21 22 C20.01 22 19.02 22 18 22 C17.505 15.565 17.505 15.565 17 9 C15.35 13.29 13.7 17.58 12 22 C11.01 22 10.02 22 9 22 C7.02 17.38 5.04 12.76 3 8 C2.67 12.62 2.34 17.24 2 22 C1.34 22 0.68 22 0 22 C0 14.74 0 7.48 0 0 Z " fill="#515458" transform="translate(235,251)"/>
<path d="M0 0 C11 0 11 0 15 3 C15.80239332 5.74473854 15.65871817 8.22644982 15 11 C12.07175551 13.83950981 10.25938651 13.98724329 6.1875 14.1875 C5.135625 14.125625 4.08375 14.06375 3 14 C3 16.64 3 19.28 3 22 C2.01 22 1.02 22 0 22 C0 14.74 0 7.48 0 0 Z " fill="#505458" transform="translate(260,251)"/>
<path d="M0 0 C0.99 0 1.98 0 3 0 C4.33891561 3.28942366 5.67017703 6.58189109 7 9.875 C7.3815625 10.81214844 7.763125 11.74929688 8.15625 12.71484375 C8.5171875 13.61074219 8.878125 14.50664062 9.25 15.4296875 C9.75273437 16.67081299 9.75273437 16.67081299 10.265625 17.93701172 C11 20 11 20 11 22 C10.01 22 9.02 22 8 22 C7.34 20.35 6.68 18.7 6 17 C3.03 17 0.06 17 -3 17 C-3.99 19.475 -3.99 19.475 -5 22 C-5.99 22 -6.98 22 -8 22 C-5.92957946 14.39162534 -3.14169523 7.2271408 0 0 Z " fill="#515559" transform="translate(222,251)"/>
<path d="M0 0 C3 1 3 1 3.9831543 2.71826172 C4.3994812 3.81291748 4.3994812 3.81291748 4.82421875 4.9296875 C5.13037109 5.72503906 5.43652344 6.52039063 5.75195312 7.33984375 C6.06068359 8.17644531 6.36941406 9.01304687 6.6875 9.875 C7.00783203 10.70386719 7.32816406 11.53273438 7.65820312 12.38671875 C10 18.56826359 10 18.56826359 10 22 C9.01 22 8.02 22 7 22 C6.67 20.02 6.34 18.04 6 16 C2.7 16 -0.6 16 -4 16 C-4.33 17.98 -4.66 19.96 -5 22 C-5.99 22 -6.98 22 -8 22 C-7.37910554 17.00956079 -5.90498961 12.79272252 -4 8.1875 C-3.72671875 7.50751953 -3.4534375 6.82753906 -3.171875 6.12695312 C-1.14553571 1.14553571 -1.14553571 1.14553571 0 0 Z " fill="#4E5255" transform="translate(362,251)"/>
<path d="M0 0 C0.99 0 1.98 0 3 0 C3 2.97 3 5.94 3 9 C6.63 9 10.26 9 14 9 C14 6.03 14 3.06 14 0 C14.99 0 15.98 0 17 0 C17 7.26 17 14.52 17 22 C16.01 22 15.02 22 14 22 C14 18.7 14 15.4 14 12 C10.37 12 6.74 12 3 12 C3 15.3 3 18.6 3 22 C2.01 22 1.02 22 0 22 C0 14.74 0 7.48 0 0 Z " fill="#53565A" transform="translate(335,251)"/>
<path d="M0 0 C2.4375 1.25 2.4375 1.25 4 3 C4 4.32 4 5.64 4 7 C3.01 7 2.02 7 1 7 C0.67 6.01 0.34 5.02 0 4 C-2.31 4 -4.62 4 -7 4 C-6.88551155 5.92625985 -6.88551155 5.92625985 -6 8 C-3.70152513 9.57314972 -3.70152513 9.57314972 -0.9375 10.75 C0.44115234 11.39195312 0.44115234 11.39195312 1.84765625 12.046875 C2.91306641 12.51867187 2.91306641 12.51867187 4 13 C4.36670547 18.50058207 4.36670547 18.50058207 2.76953125 20.67578125 C0.54096075 22.34351944 -0.73891873 22.40261081 -3.5 22.375 C-4.2734375 22.38273437 -5.046875 22.39046875 -5.84375 22.3984375 C-8.50414788 21.90684224 -9.41331254 21.16643864 -11 19 C-11 18.01 -11 17.02 -11 16 C-10.01 16 -9.02 16 -8 16 C-7.34 16.99 -6.68 17.98 -6 19 C-2.41642759 19.25015873 -2.41642759 19.25015873 1 19 C1 17.35 1 15.7 1 14 C0.38511719 13.81824219 -0.22976563 13.63648438 -0.86328125 13.44921875 C-1.67152344 13.19785156 -2.47976563 12.94648438 -3.3125 12.6875 C-4.11300781 12.44386719 -4.91351563 12.20023437 -5.73828125 11.94921875 C-8.14918593 10.93738829 -9.42698016 10.08028031 -11 8 C-10.875 4.9375 -10.875 4.9375 -10 2 C-6.28986601 -0.47342266 -4.38939738 -0.38503486 0 0 Z " fill="#4C5054" transform="translate(306,251)"/>
<path d="M0 0 C0.99 0 1.98 0 3 0 C3.06058594 1.28777344 3.12117188 2.57554687 3.18359375 3.90234375 C3.26798247 5.58074159 3.3526313 7.25912636 3.4375 8.9375 C3.47681641 9.78763672 3.51613281 10.63777344 3.55664062 11.51367188 C3.59853516 12.32255859 3.64042969 13.13144531 3.68359375 13.96484375 C3.72025146 14.7137085 3.75690918 15.46257324 3.79467773 16.23413086 C3.81771063 18.02461326 3.81771063 18.02461326 5 19 C7.31 19 9.62 19 12 19 C12.33 12.73 12.66 6.46 13 0 C13.99 0 14.98 0 16 0 C16.10806144 2.91765891 16.18732877 5.83131125 16.25 8.75 C16.30027344 9.9875 16.30027344 9.9875 16.3515625 11.25 C16.44996469 17.35093589 16.44996469 17.35093589 14.234375 20.546875 C11.89625679 22.06746936 10.75652713 22.54307074 8 22.5 C7.34 22.5103125 6.68 22.520625 6 22.53125 C2.89321786 21.70601099 1.83870039 20.65228463 0 18 C-0.48350654 14.90075314 -0.37702968 11.8768845 -0.25 8.75 C-0.23195313 7.90953125 -0.21390625 7.0690625 -0.1953125 6.203125 C-0.14830798 4.13492605 -0.07656724 2.06731559 0 0 Z " fill="#494D50" transform="translate(277,251)"/>
<path d="M0 0 C2.875 1.8125 2.875 1.8125 5 4 C5 4.99 5 5.98 5 7 C4.01 7 3.02 7 2 7 C1.34 5.68 0.68 4.36 0 3 C-1.65 3 -3.3 3 -5 3 C-5.66 4.65 -6.32 6.3 -7 8 C-6.38511719 8.18175781 -5.77023437 8.36351562 -5.13671875 8.55078125 C-4.32847656 8.80214844 -3.52023437 9.05351562 -2.6875 9.3125 C-1.48673828 9.67794922 -1.48673828 9.67794922 -0.26171875 10.05078125 C2.13879776 11.05825191 3.38976856 11.9705972 5 14 C5.375 16.5 5.375 16.5 5 19 C3.3975852 21.0946927 2.48649944 21.90054984 -0.12109375 22.43359375 C-6.3929673 22.44417027 -6.3929673 22.44417027 -9.5625 20.125 C-11 18 -11 18 -11 16 C-9.68 16.33 -8.36 16.66 -7 17 C-7 17.66 -7 18.32 -7 19 C-4.69 19 -2.38 19 0 19 C0.33 17.68 0.66 16.36 1 15 C0.28972656 14.72027344 -0.42054688 14.44054687 -1.15234375 14.15234375 C-3.95311951 12.930687 -6.48064301 11.73393565 -9 10 C-10.125 6.1875 -10.125 6.1875 -10 3 C-6.69711045 -0.04882113 -4.45440141 -0.63634306 0 0 Z " fill="#4E5256" transform="translate(328,251)"/>
<path d="M0 0 C4.62 0 9.24 0 14 0 C14 0.99 14 1.98 14 3 C10.37 3 6.74 3 3 3 C3 5.31 3 7.62 3 10 C5.97 10 8.94 10 12 10 C12 10.66 12 11.32 12 12 C9.03 12 6.06 12 3 12 C3 14.64 3 17.28 3 20 C6.63 20 10.26 20 14 20 C14 20.66 14 21.32 14 22 C9.38 22 4.76 22 0 22 C0 14.74 0 7.48 0 0 Z " fill="#4F5357" transform="translate(391,251)"/>
<path d="M0 0 C2.4375 1.8125 2.4375 1.8125 4 4 C4 4.99 4 5.98 4 7 C1 6 1 6 -1 3 C-3.5 2.58333333 -3.5 2.58333333 -6 3 C-8.28027649 4.85637822 -8.28027649 4.85637822 -8.265625 7.75 C-8.26046875 8.8225 -8.2553125 9.895 -8.25 11 C-8.25773438 12.60875 -8.25773438 12.60875 -8.265625 14.25 C-8.28027649 17.14362178 -8.28027649 17.14362178 -6 19 C-3.41645782 19.16687448 -3.41645782 19.16687448 -1 19 C-0.34 17.68 0.32 16.36 1 15 C1.99 15 2.98 15 4 15 C3.6875 17.375 3.6875 17.375 3 20 C-0.79247686 22.52831791 -3.54949712 22.61322169 -8 22 C-10.67431489 20.18836733 -10.95920359 19.12238923 -12 16 C-12.58044394 10.64333165 -12.9230345 6.42650787 -9.9375 1.8125 C-6.24906662 -0.46334187 -4.26303263 -0.69758716 0 0 Z " fill="#464A4E" transform="translate(209,251)"/>
<path d="M0 0 C0 0.66 0 1.32 0 2 C0.99 2.33 1.98 2.66 3 3 C2.25556641 3.63615234 2.25556641 3.63615234 1.49609375 4.28515625 C-3.20321342 8.34243284 -7.67153988 12.54980194 -12 17 C-12.33 16.01 -12.66 15.02 -13 14 C-13.99 13.67 -14.98 13.34 -16 13 C-13.90474642 10.82404478 -11.79972937 8.65936733 -9.6875 6.5 C-8.79514648 5.56994141 -8.79514648 5.56994141 -7.88476562 4.62109375 C-7.30791016 4.03457031 -6.73105469 3.44804687 -6.13671875 2.84375 C-5.60780029 2.29912109 -5.07888184 1.75449219 -4.53393555 1.19335938 C-3 0 -3 0 0 0 Z " fill="#4E9DA2" transform="translate(128,227)"/>
<path d="M0 0 C3.78443167 3.16656527 7.29640808 6.29433785 10.625 9.9375 C12.27107148 11.71358367 12.27107148 11.71358367 14 13 C16.86920862 13.13210475 16.86920862 13.13210475 19 12 C19 12.66 19 13.32 19 14 C17.02 14.33 15.04 14.66 13 15 C12.67 15.99 12.34 16.98 12 18 C1.0487106 7.25931232 1.0487106 7.25931232 -1 4 C-0.5859375 1.86328125 -0.5859375 1.86328125 0 0 Z " fill="#31939B" transform="translate(144,228)"/>
<path d="M0 0 C3 1 3 1 4.16796875 3.21484375 C4.50441406 4.11332031 4.84085938 5.01179688 5.1875 5.9375 C5.53167969 6.83339844 5.87585938 7.72929687 6.23046875 8.65234375 C7 11 7 11 7 13 C6.01 13 5.02 13 4 13 C3.34 11.35 2.68 9.7 2 8 C-0.97 8 -3.94 8 -7 8 C-7.66 9.65 -8.32 11.3 -9 13 C-9.99 13 -10.98 13 -12 13 C-10.55384615 6.49230769 -10.55384615 6.49230769 -8.3125 4.5 C-5.04258494 3.79299134 -2.25535699 4.37396981 1 5 C0.67 3.35 0.34 1.7 0 0 Z " fill="#494D51" transform="translate(226,260)"/>
<path d="M0 0 C0.99 0 1.98 0 3 0 C3 3.3 3 6.6 3 10 C6.63 10 10.26 10 14 10 C14 10.33 14 10.66 14 11 C10.37 11 6.74 11 3 11 C3 14.63 3 18.26 3 22 C2.01 22 1.02 22 0 22 C0 14.74 0 7.48 0 0 Z " fill="#4D5054" transform="translate(335,251)"/>
<path d="M0 0 C6.15234375 -0.09765625 6.15234375 -0.09765625 8 0 C9 1 9 1 9.125 4 C9 7 9 7 8 8 C5.32941149 8.14115161 2.67567762 8.04247107 0 8 C0 5.36 0 2.72 0 0 Z " fill="#FAFAFA" transform="translate(263,254)"/>
<path d="M0 0 C0.33 0.66 0.66 1.32 1 2 C4.3 1.67 7.6 1.34 11 1 C14 6.625 14 6.625 14 10 C13.01 10 12.02 10 11 10 C10.67 8.02 10.34 6.04 10 4 C6.7 4 3.4 4 0 4 C-0.33 5.98 -0.66 7.96 -1 10 C-1.99 10 -2.98 10 -4 10 C-3.5205537 5.78087253 -2.83374881 3.20336822 0 0 Z " fill="#494C50" transform="translate(358,263)"/>
<path d="M0 0 C6.15234375 -0.09765625 6.15234375 -0.09765625 8 0 C9 1 9 1 9.1875 3.4375 C9 6 9 6 7 8 C3.375 8.125 3.375 8.125 0 8 C0 5.36 0 2.72 0 0 Z " fill="#F2F2F3" transform="translate(377,254)"/>
<path d="M0 0 C0 3 0 3 -1.19921875 4.66015625 C-3.5061642 6.37660373 -4.96015621 6.36301483 -7.8125 6.4375 C-11.3445455 6.66919395 -13.57127029 7.01493642 -16.4375 9.125 C-17.283125 9.74375 -18.12875 10.3625 -19 11 C-19.99 10.67 -20.98 10.34 -22 10 C-19.95522476 7.17763417 -17.9200612 4.92724039 -15 3 C-11.77928086 2.61816216 -8.89632916 2.73588704 -5.671875 3.046875 C-2.95159519 3.27091479 -2.95159519 3.27091479 -1.140625 1.515625 C-0.76421875 1.01546875 -0.3878125 0.5153125 0 0 Z " fill="#D6F2F4" transform="translate(174,257)"/>
<path d="M0 0 C2.9375 2 2.9375 2 5 4 C3.89591797 3.94779297 3.89591797 3.94779297 2.76953125 3.89453125 C-3.24915589 3.723515 -3.24915589 3.723515 -9.0625 5.0625 C-11.73449349 7.73449349 -12.24403788 10.35763707 -13 14 C-13.33 14 -13.66 14 -14 14 C-14.31974464 9.92325579 -14.43803342 7.67970704 -12.1875 4.1875 C-8.1418174 0.1418174 -5.65947177 -0.5854626 0 0 Z " fill="#3D9EA0" transform="translate(138,208)"/>
<path d="M0 0 C3.4375 0.5625 3.4375 0.5625 5.875 2.375 C7.4375 4.5625 7.4375 4.5625 7.4375 7.5625 C4.4375 6.5625 4.4375 6.5625 2.4375 3.5625 C-0.0625 3.14583333 -0.0625 3.14583333 -2.5625 3.5625 C-4.96013185 5.96013185 -4.90530586 6.89523498 -5.1875 10.1875 C-5.26226562 11.00476563 -5.33703125 11.82203125 -5.4140625 12.6640625 C-5.46304688 13.29054688 -5.51203125 13.91703125 -5.5625 14.5625 C-5.8925 14.5625 -6.2225 14.5625 -6.5625 14.5625 C-6.7790625 13.1703125 -6.7790625 13.1703125 -7 11.75 C-7.48350111 8.55524889 -7.48350111 8.55524889 -8.5625 5.5625 C-5.78582332 2.1968313 -4.38582657 0.69249893 0 0 Z " fill="#595D60" transform="translate(205.5625,250.4375)"/>
<path d="M0 0 C0.33 0 0.66 0 1 0 C1.27263672 1.04800781 1.27263672 1.04800781 1.55078125 2.1171875 C1.80214844 3.02726563 2.05351563 3.93734375 2.3125 4.875 C2.55613281 5.77992188 2.79976563 6.68484375 3.05078125 7.6171875 C3.86669852 10.32113319 3.86669852 10.32113319 7 12 C8.96007376 11.98883149 10.92035684 11.89623266 12.875 11.75 C18.44970402 11.61501927 18.44970402 11.61501927 20.8984375 13.328125 C22.25 15 22.25 15 24 18 C21.69 17.34 19.38 16.68 17 16 C17 15.34 17 14.68 17 14 C16.18015625 14.03480469 15.3603125 14.06960938 14.515625 14.10546875 C13.43796875 14.13253906 12.3603125 14.15960938 11.25 14.1875 C10.18265625 14.22230469 9.1153125 14.25710938 8.015625 14.29296875 C4.65263456 13.96625336 3.36358747 13.36910987 1 11 C-0.28317892 7.15046324 -0.06643637 4.05261865 0 0 Z " fill="#CBEDEF" transform="translate(92,248)"/>
<path d="M0 0 C0.66 1.32 1.32 2.64 2 4 C0.09797311 6.03660426 -1.81938491 8.05331336 -3.75 10.0625 C-4.55824219 10.93358398 -4.55824219 10.93358398 -5.3828125 11.82226562 C-6.984375 13.47265625 -6.984375 13.47265625 -10 16 C-12.18847656 15.65795898 -12.18847656 15.65795898 -14 15 C-13.07316406 14.08476562 -12.14632812 13.16953125 -11.19140625 12.2265625 C-9.98163961 11.0261739 -8.77201135 9.82564583 -7.5625 8.625 C-6.95083984 8.02171875 -6.33917969 7.4184375 -5.70898438 6.796875 C-5.12568359 6.21679688 -4.54238281 5.63671875 -3.94140625 5.0390625 C-3.40201416 4.50490723 -2.86262207 3.97075195 -2.30688477 3.42041016 C-0.89153023 2.01347612 -0.89153023 2.01347612 0 0 Z " fill="#6BBABD" transform="translate(156,255)"/>
<path d="M0 0 C1.32 0 2.64 0 4 0 C4 7.26 4 14.52 4 22 C3.34 22 2.68 22 2 22 C1.67 16.39 1.34 10.78 1 5 C0.34 5 -0.32 5 -1 5 C-0.67 3.35 -0.34 1.7 0 0 Z " fill="#43474A" transform="translate(252,251)"/>
<path d="M0 0 C1.32 0.33 2.64 0.66 4 1 C4 2.32 4 3.64 4 5 C3.34 5 2.68 5 2 5 C2 10.61 2 16.22 2 22 C1.34 22 0.68 22 0 22 C0 14.74 0 7.48 0 0 Z " fill="#3F4347" transform="translate(235,251)"/>
<path d="M0 0 C1.7492214 -0.08142927 3.49954542 -0.13938541 5.25 -0.1875 C6.22453125 -0.22230469 7.1990625 -0.25710937 8.203125 -0.29296875 C11.44315607 0.04641998 12.76836113 0.64204195 15 3 C15.52799676 5.76142303 15.18598981 8.16365545 15 11 C14.01 10.67 13.02 10.34 12 10 C11.67 8.02 11.34 6.04 11 4 C9.1128125 3.8453125 9.1128125 3.8453125 7.1875 3.6875 C3.71253432 3.40266675 2.26650978 2.66690268 0 0 Z " fill="#606366" transform="translate(260,251)"/>
<path d="M0 0 C0.66 0.33 1.32 0.66 2 1 C2 6.61 2 12.22 2 18 C1.67 18 1.34 18 1 18 C0.67 13.71 0.34 9.42 0 5 C-0.66 6.65 -1.32 8.3 -2 10 C-2.99 10 -3.98 10 -5 10 C-4.55090939 8.51800098 -4.09043436 7.03944764 -3.625 5.5625 C-3.36976563 4.73878906 -3.11453125 3.91507812 -2.8515625 3.06640625 C-2 1 -2 1 0 0 Z " fill="#6A6D70" transform="translate(252,255)"/>
<path d="M0 0 C0.66 0.33 1.32 0.66 2 1 C3.26968434 5.95586469 3.51109996 10.42093536 1 15 C0.67 14.34 0.34 13.68 0 13 C-0.99 13.33 -1.98 13.66 -3 14 C-2.5020163 10.26512223 -2.12508244 8.18762365 0 5 C0.16713569 2.37468476 0.16713569 2.37468476 0 0 Z " fill="#2691A1" transform="translate(143,212)"/>
<path d="M0 0 C0.66 0.66 1.32 1.32 2 2 C-2.29 6.29 -6.58 10.58 -11 15 C-11.66 14.67 -12.32 14.34 -13 14 C-11.92544498 10.77633495 -11.29693158 10.17361888 -8.75 8.125 C-5.64346715 5.56291105 -2.80355296 2.88850912 0 0 Z " fill="#3C969B" transform="translate(157,259)"/>
<path d="M0 0 C2.95183101 2.95183101 3.08663988 5.95511947 4 10 C1.69 10 -0.62 10 -3 10 C-2.01 6.7 -1.02 3.4 0 0 Z " fill="#EAEAEB" transform="translate(223,255)"/>
<path d="M0 0 C0.66 0 1.32 0 2 0 C2.99 2.97 3.98 5.94 5 9 C2.69 9 0.38 9 -2 9 C-1.51421457 5.87709365 -1.0013988 3.00419641 0 0 Z " fill="#EAEAEB" transform="translate(362,256)"/>
<path d="M0 0 C0.625 1.875 0.625 1.875 1 4 C0.34 4.66 -0.32 5.32 -1 6 C-1.46396693 8.89223503 -1.46396693 8.89223503 -1.625 12.125 C-1.69976562 13.22070312 -1.77453125 14.31640625 -1.8515625 15.4453125 C-1.90054688 16.28835938 -1.94953125 17.13140625 -2 18 C-2.99 18 -3.98 18 -5 18 C-4.505 16.515 -4.505 16.515 -4 15 C-3.95758277 12.66705225 -3.95907063 10.33297433 -4 8 C-4 4 -4 4 -2 1.75 C-1.01 0.88375 -1.01 0.88375 0 0 Z " fill="#D2F0F3" transform="translate(149,270)"/>
<path d="M0 0 C0.08078641 2.12438339 0.13909141 4.2496323 0.1875 6.375 C0.22230469 7.55835938 0.25710937 8.74171875 0.29296875 9.9609375 C0.19628906 10.96382812 0.09960938 11.96671875 0 13 C-0.99 13.66 -1.98 14.32 -3 15 C-3.02698189 13.37509046 -3.04638757 11.75005367 -3.0625 10.125 C-3.07410156 9.22007812 -3.08570312 8.31515625 -3.09765625 7.3828125 C-3 5 -3 5 -2 3 C-3.32 2.34 -4.64 1.68 -6 1 C-3 0 -3 0 0 0 Z " fill="#2D9297" transform="translate(115,241)"/>
<path d="M0 0 C1.0326802 2.78823655 1.04509293 3.8677274 0.0625 6.75 C-0.288125 7.4925 -0.63875 8.235 -1 9 C-1.99 9 -2.98 9 -4 9 C-4.33 7.35 -4.66 5.7 -5 4 C-4.01 4 -3.02 4 -2 4 C-1.34 2.68 -0.68 1.36 0 0 Z " fill="#494C50" transform="translate(248,264)"/>
<path d="M0 0 C3.375 0.3125 3.375 0.3125 7 1 C9 4 9 4 9 7 C6 6 6 6 4 3 C1.43717258 2.27034634 1.43717258 2.27034634 -1 2 C-0.67 1.34 -0.34 0.68 0 0 Z " fill="#484C4F" transform="translate(204,251)"/>
<path d="M0 0 C1.32 0.66 2.64 1.32 4 2 C3.34 2 2.68 2 2 2 C1.34 4.97 0.68 7.94 0 11 C-0.99 10.67 -1.98 10.34 -3 10 C-2.01 6.7 -1.02 3.4 0 0 Z " fill="#585B5E" transform="translate(360,254)"/>
<path d="M0 0 C0.33 0.99 0.66 1.98 1 3 C-1.22592999 6.38011591 -3.21282653 8.51218185 -7 10 C-6.42424336 6.64749299 -5.40693737 5.06181371 -2.9375 2.75 C-2.38964844 2.22921875 -1.84179688 1.7084375 -1.27734375 1.171875 C-0.64505859 0.59179688 -0.64505859 0.59179688 0 0 Z " fill="#E4F8F9" transform="translate(124,235)"/>
<path d="M0 0 C0.33 0.66 0.66 1.32 1 2 C0.34 2 -0.32 2 -1 2 C-1.20625 2.53625 -1.4125 3.0725 -1.625 3.625 C-3.57996944 7.0017654 -6.18223695 9.30474839 -9 12 C-9.66 11.67 -10.32 11.34 -11 11 C-10.25943359 10.29423828 -10.25943359 10.29423828 -9.50390625 9.57421875 C-8.54291016 8.64029297 -8.54291016 8.64029297 -7.5625 7.6875 C-6.92441406 7.07261719 -6.28632812 6.45773438 -5.62890625 5.82421875 C-3.7778582 3.99355944 -3.7778582 3.99355944 -3 1 C-2.01 0.67 -1.02 0.34 0 0 Z " fill="#74CDD0" transform="translate(126,228)"/>
<path d="M0 0 C0.33 1.65 0.66 3.3 1 5 C0.01 5 -0.98 5 -2 5 C-2.33 4.01 -2.66 3.02 -3 2 C-5.97 1.505 -5.97 1.505 -9 1 C-9 0.67 -9 0.34 -9 0 C-5.62182575 -0.84454356 -3.32534757 -1.10844919 0 0 Z " fill="#6D7073" transform="translate(309,253)"/>
<path d="M0 0 C3.3 0 6.6 0 10 0 C10.66 1.32 11.32 2.64 12 4 C12.99 4.33 13.98 4.66 15 5 C14.01 5.495 14.01 5.495 13 6 C12.34 5.67 11.68 5.34 11 5 C11 4.34 11 3.68 11 3 C7.37 2.34 3.74 1.68 0 1 C0 0.67 0 0.34 0 0 Z " fill="#BBE3E5" transform="translate(132,230)"/>
<path d="M0 0 C0.66 0 1.32 0 2 0 C1.67 0.99 1.34 1.98 1 3 C0.86843473 6.68382769 0.83017862 9.49053585 2 13 C1.34 13 0.68 13 0 13 C-2.00519881 10.16913109 -2.08216415 8.14322623 -1.6875 4.8125 C-1 1 -1 1 0 0 Z " fill="#2B9095" transform="translate(95,244)"/>
<path d="M0 0 C1.1446875 0.2784375 1.1446875 0.2784375 2.3125 0.5625 C5.08967375 1.22819173 5.08967375 1.22819173 8 0 C8 0.66 8 1.32 8 2 C6.02 2.33 4.04 2.66 2 3 C1.67 3.99 1.34 4.98 1 6 C0.01 4.68 -0.98 3.36 -2 2 C-1.34 2 -0.68 2 0 2 C0 1.34 0 0.68 0 0 Z " fill="#38999D" transform="translate(155,240)"/>
<path d="M0 0 C0.66 0.33 1.32 0.66 2 1 C2.28571429 8.42857143 2.28571429 8.42857143 0 12 C-0.33 12 -0.66 12 -1 12 C-0.67 8.04 -0.34 4.08 0 0 Z " fill="#3B919C" transform="translate(144,277)"/>
<path d="M0 0 C-3.83325617 2.70582788 -6.32538149 3.32613618 -11 3 C-11 2.34 -11 1.68 -11 1 C-3.57142857 -1.42857143 -3.57142857 -1.42857143 0 0 Z " fill="#40999F" transform="translate(143,290)"/>
<path d="M0 0 C0.99 0 1.98 0 3 0 C2.75 2.375 2.75 2.375 2 5 C-0.0625 6.3125 -0.0625 6.3125 -2 7 C-1.42415568 4.61435923 -0.77772405 2.33317216 0 0 Z " fill="#55595D" transform="translate(210,266)"/>
<path d="M0 0 C1.32 0.33 2.64 0.66 4 1 C2 3 2 3 -0.3125 3.265625 C-1.199375 3.26046875 -2.08625 3.2553125 -3 3.25 C-4.3303125 3.25773437 -4.3303125 3.25773437 -5.6875 3.265625 C-8 3 -8 3 -10 1 C-6.7 1.33 -3.4 1.66 0 2 C0 1.34 0 0.68 0 0 Z " fill="#3E959C" transform="translate(169,258)"/>
<path d="M0 0 C5.75 0.75 5.75 0.75 8 3 C8.125 5.625 8.125 5.625 8 8 C5.33333333 5.33333333 2.66666667 2.66666667 0 0 Z " fill="#D6F4F5" transform="translate(138,208)"/>
<path d="M0 0 C0.99 0 1.98 0 3 0 C5 3 5 3 5 6 C3.0625 5.25 3.0625 5.25 1 4 C0.25 1.875 0.25 1.875 0 0 Z " fill="#585B5F" transform="translate(295,267)"/>
<path d="M0 0 C0.66 0 1.32 0 2 0 C3.0625 1.8125 3.0625 1.8125 4 4 C3.67 4.99 3.34 5.98 3 7 C2.01 6.34 1.02 5.68 0 5 C-0.1875 2.375 -0.1875 2.375 0 0 Z " fill="#4C4F53" transform="translate(278,266)"/>
<path d="M0 0 C1.9375 0.375 1.9375 0.375 4 1 C4.33 1.66 4.66 2.32 5 3 C4.67 3.66 4.34 4.32 4 5 C3.01 5 2.02 5 1 5 C0.67 3.35 0.34 1.7 0 0 Z " fill="#279094" transform="translate(151,237)"/>
<path d="M0 0 C0.66 0.33 1.32 0.66 2 1 C2.4140625 3.06640625 2.4140625 3.06640625 2.625 5.5625 C2.69976562 6.38878906 2.77453125 7.21507812 2.8515625 8.06640625 C2.92503906 9.02353516 2.92503906 9.02353516 3 10 C2.67 9.01 2.34 8.02 2 7 C1.01 6.67 0.02 6.34 -1 6 C-0.835 5.38125 -0.67 4.7625 -0.5 4.125 C0.07634644 2.03936614 0.07634644 2.03936614 0 0 Z " fill="#419DA5" transform="translate(143,212)"/>
</svg>
